Coordinates
version=1
nRows=5
nColumns=63
inDegrees=yes

Units are S.I. units (second, meters, Newtons, ...)
If the header above contains a line with 'inDegrees', this indicates whether rotational values are in degrees (yes) or radians (no).

endheader
time	pelvis_tilt	pelvis_list	pelvis_rotation	pelvis_tx	pelvis_ty	pelvis_tz	hip_flexion_r	hip_adduction_r	hip_rotation_r	knee_angle_r	knee_angle_r_beta	ankle_angle_r	subtalar_angle_r	mtp_angle_r	hip_flexion_l	hip_adduction_l	hip_rotation_l	knee_angle_l	knee_angle_l_beta	ankle_angle_l	subtalar_angle_l	mtp_angle_l	L5_S1_Flex_Ext	L5_S1_Lat_Bending	L5_S1_axial_rotation	L4_L5_Flex_Ext	L4_L5_Lat_Bending	L4_L5_axial_rotation	L3_L4_Flex_Ext	L3_L4_Lat_Bending	L3_L4_axial_rotation	L2_L3_Flex_Ext	L2_L3_Lat_Bending	L2_L3_axial_rotation	L1_L2_Flex_Ext	L1_L2_Lat_Bending	L1_L2_axial_rotation	L1_T12_Flex_Ext	L1_T12_Lat_Bending	L1_T12_axial_rotation	Abs_r3	Abs_r2	Abs_r1	Abs_t1	Abs_t2	neck_flexion	neck_bending	neck_rotation	arm_flex_r	arm_add_r	arm_rot_r	elbow_flex_r	pro_sup_r	wrist_flex_r	wrist_dev_r	arm_flex_l	arm_add_l	arm_rot_l	elbow_flex_l	pro_sup_l	wrist_flex_l	wrist_dev_l
      5.20800000	    -41.72307759	     -0.25447607	     -2.66785035	     -0.38346493	      1.11712060	      0.00449810	     74.75424095	     -2.42489242	     -4.82153640	     41.83457851	      0.73015114	      1.46574978	     -3.93781689	      0.00000000	    118.25725468	     -1.49735544	      9.03075970	    107.82136676	      1.88183785	      9.99821813	    -10.58650864	      0.00000000	     -0.08882759	      0.44351382	      0.04159094	     -0.16496172	      0.58987339	      0.04419037	     -0.14593485	      1.07835951	      0.04419037	     -0.10152105	      1.07835951	      0.03639207	     -0.08248530	      0.90441339	      0.03379264	     -0.05075609	      0.68700291	      0.03119320	     -0.63448660	      5.01711707	      0.23131631	      0.00000000	      0.00000000	      0.00000000	      0.00000000	      0.00000000	     61.02620365	     -8.05676346	     18.75710382	     37.17251263	     48.37265563	      0.00000000	      4.99999073	     60.37744133	     -8.69077799	     19.45399713	     34.98191815	     56.76333891	      0.00000000	      4.99999073
      5.21700000	    -41.69938369	     -0.26227566	     -2.73000267	     -0.38353234	      1.11720390	      0.00506316	     74.73775323	     -2.32435591	     -4.65490996	     42.88030591	      0.74840252	      1.61295796	     -4.01825348	      0.00000000	    118.48794301	     -1.53958770	      9.12315066	    107.08267933	      1.86894533	      9.99431870	    -10.43584797	      0.00000000	     -0.08901287	      0.43283545	      0.05166733	     -0.16530580	      0.57567115	      0.05489654	     -0.14623924	      1.05239612	      0.05489654	     -0.10173281	      1.05239612	      0.04520891	     -0.08265735	      0.88263805	      0.04197970	     -0.05086195	      0.67046211	      0.03875050	     -0.63581002	      4.89632119	      0.28735817	      0.00000000	      0.00000000	      0.00000000	      0.00000000	      0.00000000	     60.93151032	     -8.04585053	     18.62567643	     37.13059657	     48.35514826	      0.00000000	      4.99999080	     60.38735909	     -8.69112766	     19.50795234	     34.95045936	     56.79039558	      0.00000000	      4.99999080
      5.22500000	    -41.67334434	     -0.19918931	     -2.74243937	     -0.38363881	      1.11728518	      0.00562501	     74.82049369	     -2.30598988	     -4.41030003	     44.10250989	      0.76973401	      1.75294827	     -4.10688679	      0.00000000	    118.59784066	     -1.55633910	      9.12058141	    106.23071787	      1.85407579	     10.04752535	    -10.20582112	      0.00000000	     -0.08974984	      0.41262772	      0.05325472	     -0.16667443	      0.54879486	      0.05658313	     -0.14745002	      1.00326303	      0.05658313	     -0.10257510	      1.00326303	      0.04659788	     -0.08334170	      0.84143044	      0.04326946	     -0.05128306	      0.63916033	      0.03994104	     -0.64107416	      4.66772726	      0.29618675	      0.00000000	      0.00000000	      0.00000000	      0.00000000	      0.00000000	     60.82366933	     -7.99687465	     18.44178924	     37.12350982	     48.33005283	      0.00000000	      4.99999090	     60.42700511	     -8.71730376	     19.57844504	     34.90538665	     56.82713462	      0.00000000	      4.99999090
      5.23300000	    -41.67200792	      0.10315547	     -2.65544055	     -0.38390177	      1.11743967	      0.00625203	     75.03686349	     -2.46407713	     -3.95171427	     45.44032332	      0.79308326	      1.89326850	     -4.24170445	      0.00000000	    118.57168299	     -1.60410662	      8.84190748	    105.21049940	      1.83626962	     10.33218997	     -9.74472669	      0.00000000	     -0.08984194	      0.35969144	      0.04350593	     -0.16684546	      0.47838962	      0.04622505	     -0.14760132	      0.87455377	      0.04622505	     -0.10268035	      0.87455377	      0.03806768	     -0.08342722	      0.73348279	      0.03534856	     -0.05133568	      0.55716204	      0.03262944	     -0.64173197	      4.06890151	      0.24196690	      0.00000000	      0.00000000	      0.00000000	      0.00000000	      0.00000000	     60.63400120	     -7.85586663	     17.92625962	     37.16139158	     48.25951840	      0.00000000	      4.99999116	     60.58387393	     -8.81037273	     19.82536753	     34.86446013	     56.93771440	      0.00000000	      4.99999116
      5.24200000	    -41.69913517	      0.00349196	     -2.82914401	     -0.38413462	      1.11748481	      0.00690859	     75.26061674	     -2.27887388	     -3.85377072	     46.81112891	      0.81700833	      1.97458547	     -4.31571420	      0.00000000	    118.58131493	     -1.68183972	      9.04329353	    104.23271649	      1.81920409	     10.39800868	     -9.64865389	      0.00000000	     -0.08898172	      0.36429412	      0.08443913	     -0.16524796	      0.48451117	      0.08971658	     -0.14618808	      0.88574471	      0.08971658	     -0.10169721	      0.88574471	      0.07388424	     -0.08262843	      0.74286856	      0.06860680	     -0.05084416	      0.56429159	      0.06332935	     -0.63558756	      4.12096790	      0.46962514	      0.00000000	      0.00000000	      0.00000000	      0.00000000	      0.00000000	     60.59732472	     -7.89642312	     17.81132197	     37.17375833	     48.24411916	      0.00000000	      4.99999122	     60.62784923	     -8.76036578	     19.87811735	     34.89732682	     56.96125427	      0.00000000	      4.99999122
